<svg width="232" height="85" viewBox="0 0 232 85" fill="none" xmlns="http://www.w3.org/2000/svg">
<rect width="232" height="85" fill="#E5E5E5"/>
<rect width="232" height="85" fill="#3A3A3A"/>
<path d="M36.3711 43.9023C36.3711 45.1211 36.8398 46.2344 37.7773 47.2422C38.8789 48.4141 40.3438 49 42.1719 49V46.7852C40.8594 46.7852 39.8516 46.2578 39.1484 45.2031C38.8672 44.7578 38.7266 44.3242 38.7266 43.9023V35.5703C38.7266 34.7266 39.1367 33.9766 39.957 33.3203C40.6133 32.8047 41.3516 32.5469 42.1719 32.5469V30.332C39.9688 30.332 38.3047 31.2109 37.1797 32.9688C36.6641 33.8125 36.3945 34.6445 36.3711 35.4648V43.9023ZM43.7539 32.582C44.9023 32.582 45.7695 33.0742 46.3555 34.0586C46.6367 34.5039 46.8008 35.0195 46.8477 35.6055C46.8711 35.7227 46.8828 35.9688 46.8828 36.3438L49.0625 35.5352C49.0625 33.8477 48.3711 32.4766 46.9883 31.4219C46.0273 30.6953 44.9492 30.332 43.7539 30.332V32.582ZM43.7188 49.0352C45.3594 49.0586 46.7891 48.4375 48.0078 47.1719C48.9922 46.1406 49.4844 45.0156 49.4844 43.7969L47.2695 42.9531V43.6562C47.1289 44.9688 46.4727 45.9062 45.3008 46.4688C44.7852 46.7031 44.2578 46.8203 43.7188 46.8203V49.0352ZM55.3695 43.9023V35.3945C55.3695 34.3164 55.8617 33.25 56.8461 32.1953C58.018 30.9531 59.4945 30.332 61.2758 30.332V32.582C59.7992 32.582 58.7328 33.2031 58.0766 34.4453C57.8188 34.9375 57.6898 35.4062 57.6898 35.8516V43.4453C57.6898 44.3359 58.1117 45.1562 58.9555 45.9062C59.6586 46.4922 60.4438 46.7852 61.3109 46.7852V49.0352C59.1313 49.0352 57.4438 48.1562 56.2484 46.3984C55.6625 45.5078 55.3695 44.6758 55.3695 43.9023ZM62.7875 49.0352V46.7852C64.1469 46.7852 65.1664 46.1758 65.8461 44.957C66.1039 44.4414 66.2328 43.9609 66.2328 43.5156V35.8516C66.2328 34.8672 65.8109 34.0234 64.9672 33.3203C64.3344 32.8281 63.6078 32.582 62.7875 32.582V30.332C64.9203 30.332 66.5492 31.1992 67.6742 32.9336C68.2367 33.8008 68.518 34.6211 68.518 35.3945V43.9023C68.518 45.0039 68.0492 46.082 67.1117 47.1367C65.9633 48.3789 64.5219 49.0117 62.7875 49.0352ZM74.7898 49V35.3594C74.7898 33.9766 75.2938 32.7812 76.3016 31.7734C77.3094 30.7656 78.6102 30.2617 80.2039 30.2617V32.5117C78.8445 32.5117 77.9188 33.1094 77.4266 34.3047C77.2391 34.75 77.1453 35.207 77.1453 35.6758V49H74.7898ZM81.7508 32.5117V30.2617C83.5086 30.2617 84.868 30.8477 85.8289 32.0195C85.9227 32.1367 86.0047 32.2422 86.075 32.3359C86.9188 31.1641 87.9969 30.4961 89.3094 30.332C89.6375 30.2852 89.9773 30.2617 90.3289 30.2617V32.5117C88.9227 32.5117 87.9734 33.1211 87.4813 34.3398C87.3172 34.7617 87.2352 35.207 87.2352 35.6758V49H84.8797V35.6758C84.8797 34.3633 84.3523 33.4258 83.2977 32.8633C82.8289 32.6289 82.3133 32.5117 81.7508 32.5117ZM91.9109 32.5117V30.2617C94.1141 30.2617 95.7078 31.1875 96.6922 33.0391C97.1141 33.8359 97.325 34.6094 97.325 35.3594V49H94.9695V35.6758C94.9695 34.2695 94.4188 33.3086 93.3172 32.793C92.8953 32.6055 92.4266 32.5117 91.9109 32.5117ZM103.597 49V35.3594C103.597 33.9766 104.101 32.7812 105.109 31.7734C106.116 30.7656 107.417 30.2617 109.011 30.2617V32.5117C107.652 32.5117 106.726 33.1094 106.234 34.3047C106.046 34.75 105.952 35.207 105.952 35.6758V49H103.597ZM110.558 32.5117V30.2617C112.316 30.2617 113.675 30.8477 114.636 32.0195C114.73 32.1367 114.812 32.2422 114.882 32.3359C115.726 31.1641 116.804 30.4961 118.116 30.332C118.445 30.2852 118.784 30.2617 119.136 30.2617V32.5117C117.73 32.5117 116.78 33.1211 116.288 34.3398C116.124 34.7617 116.042 35.207 116.042 35.6758V49H113.687V35.6758C113.687 34.3633 113.159 33.4258 112.105 32.8633C111.636 32.6289 111.12 32.5117 110.558 32.5117ZM120.718 32.5117V30.2617C122.921 30.2617 124.515 31.1875 125.499 33.0391C125.921 33.8359 126.132 34.6094 126.132 35.3594V49H123.777V35.6758C123.777 34.2695 123.226 33.3086 122.124 32.793C121.702 32.6055 121.234 32.5117 120.718 32.5117ZM132.439 43.9023V35.3594C132.463 34.2812 132.978 33.2266 133.986 32.1953C135.158 30.9766 136.599 30.3555 138.31 30.332V32.5469C137.068 32.5469 136.072 33.0977 135.322 34.1992C134.97 34.7148 134.795 35.1953 134.795 35.6406V38.2422H143.619V35.6406C143.619 34.5156 143.045 33.6367 141.896 33.0039C141.287 32.6523 140.654 32.4766 139.998 32.4766V30.332C141.591 30.332 143.021 30.9062 144.287 32.0547C145.318 33.0391 145.845 34.1289 145.869 35.3242V40.4922H134.795V43.9023C134.795 44.582 135.205 45.2617 136.025 45.9414C136.752 46.5273 137.525 46.8203 138.345 46.8203V49C136.259 49 134.607 48.1445 133.388 46.4336C132.755 45.5195 132.439 44.6758 132.439 43.9023ZM139.998 49V46.75C141.474 46.75 142.599 46.1406 143.373 44.9219C143.607 44.5703 143.759 44.2305 143.83 43.9023L145.904 44.6758C145.435 46.3398 144.427 47.5586 142.88 48.332C141.99 48.7773 141.029 49 139.998 49ZM152.352 49V30.332H154.707V33.1094C155.199 32.1016 156.02 31.3281 157.168 30.7891C157.871 30.4609 158.598 30.2969 159.348 30.2969H159.734L159.172 32.5469C157.93 32.5703 156.828 33.2734 155.867 34.6562C155.094 35.8047 154.707 36.9883 154.707 38.207V49H152.352ZM165.303 43.9023C165.303 45.1211 165.772 46.2344 166.709 47.2422C167.811 48.4141 169.276 49 171.104 49V46.7852C169.791 46.7852 168.784 46.2578 168.08 45.2031C167.799 44.7578 167.659 44.3242 167.659 43.9023V35.5703C167.659 34.7266 168.069 33.9766 168.889 33.3203C169.545 32.8047 170.284 32.5469 171.104 32.5469V30.332C168.901 30.332 167.237 31.2109 166.112 32.9688C165.596 33.8125 165.327 34.6445 165.303 35.4648V43.9023ZM172.686 32.582C173.834 32.582 174.702 33.0742 175.288 34.0586C175.569 34.5039 175.733 35.0195 175.78 35.6055C175.803 35.7227 175.815 35.9688 175.815 36.3438L177.995 35.5352C177.995 33.8477 177.303 32.4766 175.92 31.4219C174.959 30.6953 173.881 30.332 172.686 30.332V32.582ZM172.651 49.0352C174.291 49.0586 175.721 48.4375 176.94 47.1719C177.924 46.1406 178.416 45.0156 178.416 43.7969L176.202 42.9531V43.6562C176.061 44.9688 175.405 45.9062 174.233 46.4688C173.717 46.7031 173.19 46.8203 172.651 46.8203V49.0352ZM184.337 43.9023V35.3594C184.36 34.2812 184.876 33.2266 185.884 32.1953C187.055 30.9766 188.497 30.3555 190.208 30.332V32.5469C188.966 32.5469 187.97 33.0977 187.22 34.1992C186.868 34.7148 186.692 35.1953 186.692 35.6406V38.2422H195.516V35.6406C195.516 34.5156 194.942 33.6367 193.794 33.0039C193.184 32.6523 192.552 32.4766 191.895 32.4766V30.332C193.489 30.332 194.919 30.9062 196.184 32.0547C197.216 33.0391 197.743 34.1289 197.766 35.3242V40.4922H186.692V43.9023C186.692 44.582 187.102 45.2617 187.923 45.9414C188.649 46.5273 189.423 46.8203 190.243 46.8203V49C188.157 49 186.505 48.1445 185.286 46.4336C184.653 45.5195 184.337 44.6758 184.337 43.9023ZM191.895 49V46.75C193.372 46.75 194.497 46.1406 195.27 44.9219C195.505 44.5703 195.657 44.2305 195.727 43.9023L197.802 44.6758C197.333 46.3398 196.325 47.5586 194.778 48.332C193.887 48.7773 192.927 49 191.895 49Z" fill="black"/>
</svg>
